<svg id="Name" xmlns="http://www.w3.org/2000/svg" viewBox="0 0 547.26 149.74"><defs><style>.cls-1{fill:none;}.cls-2{fill:#fff;}.cls-3{fill:#ee4699;}.cls-4{fill:#70c8b9;}.cls-5{fill:#febf10;}</style></defs><title>hero-Boyle</title><g id="E"><rect class="cls-1" x="478.15" y="-10.52" width="69.11" height="172.77"/><polygon class="cls-2" points="505.79 85.08 540.35 85.08 540.35 75.87 496.58 75.87 496.58 131.16 547.26 131.16 547.26 121.94 505.79 121.94 505.79 85.08"/><polygon class="cls-3" points="496.58 66.66 540.35 66.66 540.35 57.44 505.79 57.44 505.79 29.8 547.26 29.8 547.26 20.58 496.58 20.58 496.58 66.66"/><rect class="cls-4" x="487.36" y="140.37" width="59.89" height="9.21"/><polygon class="cls-5" points="487.36 140.37 487.36 11.37 487.36 2.15 478.15 2.15 478.15 149.59 487.36 149.59 487.36 140.37"/><rect class="cls-4" x="496.58" y="2.15" width="50.68" height="9.21"/></g><g id="L"><rect class="cls-1" x="369.04" y="-10.52" width="69.11" height="172.77"/><polygon class="cls-4" points="396.68 2.15 387.47 2.15 387.47 131.16 438.15 131.16 438.15 121.94 396.68 121.94 396.68 2.15"/><polygon class="cls-2" points="378.25 96.6 378.25 2.15 369.04 2.15 369.04 149.59 378.25 149.59 378.25 140.37 378.25 96.6"/><rect class="cls-5" x="378.25" y="140.37" width="59.89" height="9.21"/></g><g id="Y"><rect class="cls-1" x="236.65" y="-10.52" width="92.39" height="172.77"/><polygon class="cls-5" points="287.85 75.87 287.45 76.81 287.45 149.59 296.67 149.59 296.67 78.67 329.04 2.15 319.03 2.15 287.85 75.87"/><polygon class="cls-4" points="246.65 2.15 236.65 2.15 269.02 78.67 269.02 149.59 278.24 149.59 278.24 76.81 277.84 75.87 246.65 2.15"/><polygon class="cls-2" points="299.02 2.15 282.84 40.4 266.66 2.15 256.66 2.15 282.84 64.05 309.03 2.15 299.02 2.15"/></g><g id="O"><rect class="cls-1" x="118.32" y="-10.52" width="78.32" height="172.77"/><path class="cls-2" d="M157.49,19.43a20.76,20.76,0,0,0-20.74,20.73v71.42a20.74,20.74,0,0,0,41.47,0V40.16A20.75,20.75,0,0,0,157.49,19.43ZM169,111.58a11.52,11.52,0,0,1-23,0V40.16a11.52,11.52,0,0,1,23,0Z"/><path class="cls-3" d="M157.49,1v9.22a30,30,0,0,1,29.94,29.94v71.42a30,30,0,0,1-29.94,29.94v9.22a39.21,39.21,0,0,0,39.16-39.16V40.16A39.21,39.21,0,0,0,157.49,1Z"/><path class="cls-4" d="M127.54,111.58V40.16a30,30,0,0,1,30-29.94V1a39.21,39.21,0,0,0-39.17,39.16v71.42a39.21,39.21,0,0,0,39.17,39.16v-9.22A30,30,0,0,1,127.54,111.58Z"/></g><g id="B"><rect class="cls-1" y="-10.52" width="78.32" height="172.77"/><path class="cls-3" d="M47.64,64.05A25.33,25.33,0,0,0,30,20.58H18.43V71.26H30A25.27,25.27,0,0,0,47.64,64.05Zm-20-34.25H30a16.13,16.13,0,0,1,0,32.25H27.64Z"/><path class="cls-2" d="M49.26,85.2a25.2,25.2,0,0,0-14.71-4.72H18.43v50.68H34.55a25.33,25.33,0,0,0,14.71-46ZM34.55,121.94H27.64V89.69h6.91a16.13,16.13,0,1,1,0,32.25Z"/><polygon class="cls-5" points="9.21 140.37 9.21 11.37 9.21 2.15 0 2.15 0 149.59 9.21 149.59 9.21 140.37"/><path class="cls-3" d="M34.55,140.37H9.21v9.22H34.55a43.82,43.82,0,0,0,43.77-43.77H69.11A34.59,34.59,0,0,1,34.55,140.37Z"/><path class="cls-4" d="M64,73.43A43.75,43.75,0,0,0,30,2.15H18.43v9.22H30A34.54,34.54,0,0,1,49.27,74.55a34.64,34.64,0,0,1,19.84,31.27h9.21A43.68,43.68,0,0,0,64,73.43Z"/></g></svg>