<svg id="Name" xmlns="http://www.w3.org/2000/svg" viewBox="0 0 814.05 147.43"><defs><style>.cls-1{fill:none;}.cls-2{fill:#ee4699;}.cls-3{fill:#fff;}.cls-4{fill:#febf10;}.cls-5{fill:#70c8b9;}</style></defs><title>hero-Patrick</title><g id="K"><rect class="cls-1" x="727.03" y="-12.67" width="83.4" height="172.77"/><rect class="cls-2" x="727.03" width="9.21" height="147.43"/><polygon class="cls-3" points="800.07 0 762.15 73.72 800.07 147.43 810.43 147.43 772.52 73.72 810.43 0 800.07 0"/><polygon class="cls-4" points="754.16 78.32 745.46 78.32 745.46 147.43 754.67 147.43 754.67 99.46 779.34 147.43 789.7 147.43 754.67 79.31 754.16 78.32"/><polygon class="cls-5" points="754.67 68.12 789.7 0 779.34 0 754.67 47.97 754.67 0 745.46 0 745.46 69.11 754.16 69.11 754.67 68.12"/></g><g id="C"><rect class="cls-1" x="598.7" y="-12.67" width="78.32" height="172.77"/><path class="cls-4" d="M598.7,109.42a39.17,39.17,0,0,0,78.33,0v-5.76h-9.22v5.76a29.95,29.95,0,1,1-59.89,0V73.72H598.7Z"/><path class="cls-5" d="M677,43.77V38a39.17,39.17,0,0,0-78.33,0V73.72h9.22V38a29.95,29.95,0,1,1,59.89,0v5.76Z"/><path class="cls-2" d="M658.6,43.77V38a20.74,20.74,0,0,0-41.47,0v71.41a20.74,20.74,0,1,0,41.47,0v-5.76h-9.22v5.76a11.52,11.52,0,1,1-23,0V38a11.52,11.52,0,1,1,23,0v5.76Z"/></g><g id="I"><rect class="cls-1" x="521.06" y="-12.67" width="27.64" height="172.77"/><rect class="cls-5" x="539.49" width="9.21" height="147.43"/><rect class="cls-4" x="521.06" width="9.21" height="147.43"/></g><g id="R"><rect class="cls-1" x="392.12" y="-12.67" width="78.94" height="172.77"/><polygon class="cls-4" points="425.84 82.93 410.55 82.93 410.55 147.43 419.77 147.43 419.77 92.64 441.35 147.43 451.25 147.43 429.47 92.15 425.84 82.93"/><path class="cls-5" d="M452,53V39.16a20.76,20.76,0,0,0-20.74-20.73H410.55V73.72h20.73A20.76,20.76,0,0,0,452,53ZM419.77,27.64h11.51A11.53,11.53,0,0,1,442.8,39.16V53A11.53,11.53,0,0,1,431.28,64.5H419.77Z"/><polygon class="cls-2" points="401.34 0 392.12 0 392.12 147.43 401.34 147.43 401.34 34.55 401.34 9.21 401.34 0"/><path class="cls-3" d="M447.83,88.48A39.22,39.22,0,0,0,470.45,53V39.16A39.21,39.21,0,0,0,431.28,0H410.55V9.21h20.73a30,30,0,0,1,30,29.95V53a30,30,0,0,1-25.61,29.64l3.45,8.75,22.09,56.06h9.9Z"/></g><g id="T"><rect class="cls-1" x="268.41" y="-12.67" width="73.72" height="172.77"/><polygon class="cls-4" points="268.4 27.64 291.44 27.64 291.44 147.43 300.66 147.43 300.66 18.43 268.4 18.43 268.4 27.64"/><rect class="cls-5" x="268.41" width="73.72" height="9.21"/><polygon class="cls-2" points="309.87 147.43 319.09 147.43 319.09 27.64 342.12 27.64 342.12 18.43 309.87 18.43 309.87 147.43"/></g><g id="A"><rect class="cls-1" x="130.26" y="-12.67" width="88.14" height="172.77"/><polygon class="cls-3" points="194.75 124.4 153.92 124.4 151.99 133.61 149.1 147.43 158.51 147.43 161.41 133.61 187.26 133.61 190.16 147.43 199.57 147.43 196.68 133.61 194.75 124.4"/><polygon class="cls-5" points="178.08 0 208.99 147.43 218.41 147.43 187.49 0 178.08 0"/><path class="cls-4" d="M155.86,115.18h36.95L190.88,106,174.33,27.06,157.79,106ZM174.33,72l7.13,34H167.2Z"/><polygon class="cls-2" points="161.18 0 130.26 147.43 139.68 147.43 170.59 0 161.18 0"/></g><g id="P"><rect class="cls-1" x="1.94" y="-12.67" width="78.32" height="172.77"/><path class="cls-2" d="M61.83,53V39.16A20.75,20.75,0,0,0,41.1,18.43H20.37V73.72H41.1A20.76,20.76,0,0,0,61.83,53ZM29.58,27.64H41.1A11.54,11.54,0,0,1,52.62,39.16V53A11.54,11.54,0,0,1,41.1,64.5H29.58Z"/><polygon class="cls-5" points="11.15 0 1.94 0 1.94 147.43 11.15 147.43 11.15 50.68 11.15 9.21 11.15 0"/><path class="cls-4" d="M41.1,0H20.37V9.21H41.1A30,30,0,0,1,71.05,39.16V53a30,30,0,0,1-29.95,30H20.37v64.5h9.21V92.15H41.1A39.2,39.2,0,0,0,80.26,53V39.16A39.2,39.2,0,0,0,41.1,0Z"/></g></svg>