<svg id="Pulldown" xmlns="http://www.w3.org/2000/svg" viewBox="0 0 192 192"><defs><style>.cls-1{fill:#fff;}</style></defs><title>hero-Pulldown</title><path class="cls-1" d="M58.18,81.51a6.22,6.22,0,0,0,0,8.81l33.13,33.14a6.23,6.23,0,0,0,8.82,0l33.13-33.14a6.23,6.23,0,0,0-8.81-8.81L95.72,110.24,67,81.51A6.23,6.23,0,0,0,58.18,81.51Z"/><path class="cls-1" d="M2.59,95.06A93.14,93.14,0,1,0,95.72,1.93,93.24,93.24,0,0,0,2.59,95.06Zm170.81,0A77.68,77.68,0,1,1,95.72,17.38,77.77,77.77,0,0,1,173.4,95.06Z"/></svg>