<svg id="Pulldown" xmlns="http://www.w3.org/2000/svg" viewBox="0 0 192 192"><defs><style>.cls-1{fill:#fff;}</style></defs><title>hero-Pulldown</title><path class="cls-1" d="M49.19,76.49a7.73,7.73,0,0,0,0,10.92l41.07,41.07a7.73,7.73,0,0,0,10.92,0l41.07-41.07a7.72,7.72,0,1,0-10.92-10.92l-35.61,35.6-35.6-35.6A7.73,7.73,0,0,0,49.19,76.49Z"/><path class="cls-1" d="M2.59,95.06A93.14,93.14,0,1,0,95.72,1.93,93.24,93.24,0,0,0,2.59,95.06Zm170.81,0A77.68,77.68,0,1,1,95.72,17.38,77.77,77.77,0,0,1,173.4,95.06Z"/></svg>