<svg id="Name" xmlns="http://www.w3.org/2000/svg" viewBox="0 0 812.62 430.92"><defs><style>.cls-1{fill:none;}.cls-2{fill:#ee4699;}.cls-3{fill:#fff;}.cls-4{fill:#febf10;}.cls-5{fill:#70c8b9;}</style></defs><title>hero-Stacked</title><g id="K"><rect class="cls-1" x="727.15" width="83.4" height="172.77"/><rect class="cls-2" x="727.15" y="12.67" width="9.21" height="147.43"/><polygon class="cls-3" points="800.19 12.67 762.28 86.39 800.19 160.1 810.55 160.1 772.64 86.39 810.55 12.67 800.19 12.67"/><polygon class="cls-4" points="754.29 90.99 745.58 90.99 745.58 160.1 754.79 160.1 754.79 112.13 779.47 160.1 789.83 160.1 754.79 91.98 754.29 90.99"/><polygon class="cls-5" points="754.79 80.79 789.83 12.67 779.47 12.67 754.79 60.64 754.79 12.67 745.58 12.67 745.58 81.78 754.29 81.78 754.79 80.79"/></g><g id="C"><rect class="cls-1" x="598.83" width="78.32" height="172.77"/><path class="cls-4" d="M598.83,122.09a39.16,39.16,0,1,0,78.32,0v-5.76h-9.21v5.76a29.95,29.95,0,1,1-59.9,0V86.39h-9.21Z"/><path class="cls-5" d="M677.15,56.44V50.68a39.16,39.16,0,1,0-78.32,0V86.39H608V50.68a30,30,0,0,1,59.9,0v5.76Z"/><path class="cls-2" d="M658.72,56.44V50.68a20.73,20.73,0,1,0-41.46,0v71.41a20.73,20.73,0,1,0,41.46,0v-5.76h-9.21v5.76a11.52,11.52,0,1,1-23,0V50.68a11.52,11.52,0,1,1,23,0v5.76Z"/></g><g id="I"><rect class="cls-1" x="521.18" width="27.64" height="172.77"/><rect class="cls-5" x="539.61" y="12.67" width="9.21" height="147.43"/><rect class="cls-4" x="521.18" y="12.67" width="9.21" height="147.43"/></g><g id="R"><rect class="cls-1" x="392.25" width="78.94" height="172.77"/><polygon class="cls-4" points="425.97 95.6 410.68 95.6 410.68 160.1 419.89 160.1 419.89 105.31 441.48 160.1 451.38 160.1 429.6 104.82 425.97 95.6"/><path class="cls-5" d="M452.14,65.65V51.83A20.75,20.75,0,0,0,431.41,31.1H410.68V86.39h20.73A20.76,20.76,0,0,0,452.14,65.65ZM419.89,40.31h11.52a11.54,11.54,0,0,1,11.52,11.52V65.65a11.54,11.54,0,0,1-11.52,11.52H419.89Z"/><polygon class="cls-2" points="401.46 12.67 392.25 12.67 392.25 160.1 401.46 160.1 401.46 47.23 401.46 21.89 401.46 12.67"/><path class="cls-3" d="M448,101.15a39.21,39.21,0,0,0,22.61-35.5V51.83a39.21,39.21,0,0,0-39.16-39.16H410.68v9.21h20.73a30,30,0,0,1,29.95,30V65.65a30,30,0,0,1-25.61,29.64l3.44,8.75,22.09,56.06h9.9Z"/></g><g id="T"><rect class="cls-1" x="268.53" width="73.72" height="172.77"/><polygon class="cls-4" points="268.53 40.31 291.57 40.31 291.57 160.1 300.78 160.1 300.78 31.1 268.53 31.1 268.53 40.31"/><rect class="cls-5" x="268.53" y="12.67" width="73.72" height="9.21"/><polygon class="cls-2" points="310 160.1 319.21 160.1 319.21 40.31 342.25 40.31 342.25 31.1 310 31.1 310 160.1"/></g><g id="A"><rect class="cls-1" x="130.39" width="88.14" height="172.77"/><polygon class="cls-3" points="194.87 137.07 154.05 137.07 152.12 146.28 149.22 160.1 158.63 160.1 161.53 146.28 187.38 146.28 190.28 160.1 199.7 160.1 196.8 146.28 194.87 137.07"/><polygon class="cls-5" points="178.2 12.67 209.12 160.1 218.53 160.1 187.62 12.67 178.2 12.67"/><path class="cls-4" d="M156,127.85h37L191,118.64,174.46,39.73l-16.55,78.91Zm18.48-43.22,7.13,34H167.33Z"/><polygon class="cls-2" points="161.3 12.67 130.39 160.1 139.8 160.1 170.72 12.67 161.3 12.67"/></g><g id="P"><rect class="cls-1" x="2.06" width="78.32" height="172.77"/><path class="cls-2" d="M62,65.65V51.83A20.75,20.75,0,0,0,41.23,31.1H20.49V86.39H41.23A20.76,20.76,0,0,0,62,65.65ZM29.71,40.31H41.23A11.53,11.53,0,0,1,52.74,51.83V65.65A11.52,11.52,0,0,1,41.23,77.17H29.71Z"/><polygon class="cls-5" points="11.28 12.67 2.06 12.67 2.06 160.1 11.28 160.1 11.28 63.35 11.28 21.89 11.28 12.67"/><path class="cls-4" d="M41.23,12.67H20.49v9.21H41.23a30,30,0,0,1,29.94,30V65.65A30,30,0,0,1,41.23,95.6H20.49v64.5h9.22V104.82H41.23A39.21,39.21,0,0,0,80.39,65.65V51.83A39.21,39.21,0,0,0,41.23,12.67Z"/></g><g id="E"><rect class="cls-1" x="708.27" y="175.83" width="102.04" height="255.09"/><polygon class="cls-3" points="749.09 316.98 800.11 316.98 800.11 303.38 735.48 303.38 735.48 385.01 810.31 385.01 810.31 371.4 749.09 371.4 749.09 316.98"/><polygon class="cls-2" points="735.48 289.77 800.11 289.77 800.11 276.17 749.09 276.17 749.09 235.35 810.31 235.35 810.31 221.75 735.48 221.75 735.48 289.77"/><rect class="cls-5" x="721.88" y="398.61" width="88.43" height="13.61"/><polygon class="cls-4" points="721.88 398.61 721.88 208.14 721.88 194.54 708.27 194.54 708.27 412.22 721.88 412.22 721.88 398.61"/><rect class="cls-5" x="735.48" y="194.54" width="74.83" height="13.61"/></g><g id="L"><rect class="cls-1" x="547.18" y="175.83" width="102.04" height="255.09"/><polygon class="cls-5" points="587.99 194.54 574.39 194.54 574.39 385.01 649.22 385.01 649.22 371.4 587.99 371.4 587.99 194.54"/><polygon class="cls-3" points="560.78 333.99 560.78 194.54 547.18 194.54 547.18 412.22 560.78 412.22 560.78 398.61 560.78 333.99"/><rect class="cls-4" x="560.78" y="398.61" width="88.43" height="13.61"/></g><g id="Y"><rect class="cls-1" x="351.71" y="175.83" width="136.41" height="255.09"/><polygon class="cls-4" points="427.3 303.38 426.71 304.76 426.71 412.22 440.32 412.22 440.32 307.52 488.12 194.54 473.35 194.54 427.3 303.38"/><polygon class="cls-5" points="366.48 194.54 351.71 194.54 399.5 307.52 399.5 412.22 413.11 412.22 413.11 304.76 412.52 303.38 366.48 194.54"/><polygon class="cls-3" points="443.8 194.54 419.91 251 396.03 194.54 381.25 194.54 419.91 285.92 458.57 194.54 443.8 194.54"/></g><g id="O"><rect class="cls-1" x="177.01" y="175.83" width="115.64" height="255.09"/><path class="cls-3" d="M234.83,220.05a30.64,30.64,0,0,0-30.61,30.61V356.1a30.61,30.61,0,1,0,61.22,0V250.66A30.64,30.64,0,0,0,234.83,220.05Zm17,136.05a17,17,0,0,1-34,0V250.66a17,17,0,1,1,34,0Z"/><path class="cls-2" d="M234.83,192.84v13.6A44.27,44.27,0,0,1,279,250.66V356.1a44.26,44.26,0,0,1-44.21,44.21v13.61a57.89,57.89,0,0,0,57.82-57.82V250.66A57.88,57.88,0,0,0,234.83,192.84Z"/><path class="cls-5" d="M190.61,356.1V250.66a44.27,44.27,0,0,1,44.22-44.22v-13.6A57.88,57.88,0,0,0,177,250.66V356.1a57.88,57.88,0,0,0,57.82,57.82V400.31A44.27,44.27,0,0,1,190.61,356.1Z"/></g><g id="B"><rect class="cls-1" x="2.3" y="175.83" width="115.64" height="255.09"/><path class="cls-2" d="M72.64,285.92a37.39,37.39,0,0,0-26.12-64.17h-17v74.82h17A37.28,37.28,0,0,0,72.64,285.92ZM43.12,235.35h3.4a23.81,23.81,0,0,1,0,47.62h-3.4Z"/><path class="cls-3" d="M75,317.14a37.24,37.24,0,0,0-21.72-7H29.51V385H53.32A37.41,37.41,0,0,0,75,317.14ZM53.32,371.4H43.12V323.78h10.2a23.81,23.81,0,0,1,0,47.62Z"/><polygon class="cls-4" points="15.91 398.61 15.91 208.14 15.91 194.54 2.3 194.54 2.3 412.22 15.91 412.22 15.91 398.61"/><path class="cls-2" d="M53.32,398.61H15.91v13.61H53.32A64.7,64.7,0,0,0,118,347.59H104.34A51.08,51.08,0,0,1,53.32,398.61Z"/><path class="cls-5" d="M96.75,299.77A64.59,64.59,0,0,0,46.52,194.54h-17v13.6h17a51,51,0,0,1,28.53,93.29,51.17,51.17,0,0,1,29.29,46.16H118A64.5,64.5,0,0,0,96.75,299.77Z"/></g></svg>